HIERARCHY
ROOT Hips
{
	OFFSET 0.00000 0.00000 0.00000
	CHANNELS 6 Xposition Yposition Zposition Zrotation Yrotation Xrotation 
	JOINT LHipJoint
	{
		OFFSET 0 0 0
		CHANNELS 3 Zrotation Yrotation Xrotation
		JOINT LeftHip
		{
			OFFSET 1.55020 -1.87941 0.79896
			CHANNELS 3 Zrotation Yrotation Xrotation
			JOINT LeftKnee
			{
				OFFSET 2.65269 -7.28822 0.00000
				CHANNELS 3 Zrotation Yrotation Xrotation
				JOINT LeftAnkle
				{
					OFFSET 2.61200 -7.17641 0.00000
					CHANNELS 3 Zrotation Yrotation Xrotation
					JOINT LeftToe
					{
						OFFSET 0.09338 -0.25656 1.92461
						CHANNELS 3 Zrotation Yrotation Xrotation
						End Site
						{
							OFFSET 0.00000 -0.00000 0.98480
						}
					}
				}
			}
		}
	}
	JOINT RHipJoint
	{
		OFFSET 0 0 0
		CHANNELS 3 Zrotation Yrotation Xrotation
		JOINT RightHip
		{
			OFFSET -1.56866 -1.87941 0.79895
			CHANNELS 3 Zrotation Yrotation Xrotation
			JOINT RightKnee
			{
				OFFSET -2.60199 -7.14892 0.00000
				CHANNELS 3 Zrotation Yrotation Xrotation
				JOINT RightAnkle
				{
					OFFSET -2.62841 -7.22151 0.00000
					CHANNELS 3 Zrotation Yrotation Xrotation
					JOINT RightToe
					{
						OFFSET -0.19532 -0.53663 1.93132
						CHANNELS 3 Zrotation Yrotation Xrotation
						End Site
						{
							OFFSET -0.00000 -0.00000 1.00896
						}
					}
				}
			}
		}
	}
	JOINT lowerback
	{
		OFFSET 0 0 0
		CHANNELS 3 Zrotation Yrotation Xrotation
		JOINT Chest
		{
			OFFSET 0.06381 2.07806 -0.22112
			CHANNELS 3 Zrotation Yrotation Xrotation
			JOINT Chest2
			{
				OFFSET -0.02881 2.08890 0.01825
				CHANNELS 3 Zrotation Yrotation Xrotation
				JOINT lowerneck
				{
					OFFSET 0 0 0
					CHANNELS 3 Zrotation Yrotation Xrotation
					JOINT Neck
					{
						OFFSET 0.02418 1.74325 -0.02023
						CHANNELS 3 Zrotation Yrotation Xrotation
						JOINT Head
						{
							OFFSET -0.01704 1.71677 0.04090
							CHANNELS 3 Zrotation Yrotation Xrotation
							End Site
							{
								OFFSET -0.00946 1.78238 0.01684
							}
						}
					}
				}
				JOINT LeftCollar
				{
					OFFSET 0 0 0
					CHANNELS 3 Zrotation Yrotation Xrotation
					JOINT LeftShoulder
					{
						OFFSET 3.39783 1.34157 0.16610
CHANNELS 3 Zrotation Xrotation Yrotation
						JOINT LeftElbow
						{
OFFSET 0 -5.152180 0.000000
CHANNELS 3 Zrotation Xrotation Yrotation
							JOINT LeftWrist
							{
OFFSET 0 -3.494590 0.000000
CHANNELS 3 Zrotation Xrotation Yrotation
								JOINT lhand
								{
									OFFSET 0 0 0
CHANNELS 3 Zrotation Xrotation Yrotation
									JOINT LFingers
									{
OFFSET 0 -0.512470 0.000000
CHANNELS 3 Zrotation Xrotation Yrotation
										End Site
										{
OFFSET 0 -0.413160 0.000000
										}
									}
								}
								JOINT LThumb
								{
OFFSET 0 0.000000 0.000000
CHANNELS 3 Zrotation Xrotation Yrotation
									End Site
									{
OFFSET 0 -0.419470 0.419470
									}
								}
							}
						}
					}
				}
				JOINT RightCollar
				{
					OFFSET 0 0 0
					CHANNELS 3 Zrotation Yrotation Xrotation
					JOINT RightShoulder
					{
						OFFSET -3.26224 1.05509 0.01188
CHANNELS 3 Zrotation Xrotation Yrotation
						JOINT RightElbow
						{
OFFSET 0 -5.443440 0.000000
CHANNELS 3 Zrotation Xrotation Yrotation
							JOINT RightWrist
							{
OFFSET 0 -3.584030 0.000000
CHANNELS 3 Zrotation Xrotation Yrotation
								JOINT rhand
								{
									OFFSET 0 0 0
CHANNELS 3 Zrotation Xrotation Yrotation
									JOINT RFingers
									{
OFFSET 0 -0.342490 0.000000
CHANNELS 3 Zrotation Xrotation Yrotation
										End Site
										{
OFFSET 0 -0.276120 0.000000
										}
									}
								}
								JOINT RThumb
								{
OFFSET 0 0.000000 0.000000
CHANNELS 3 Zrotation Xrotation Yrotation
									End Site
									{
OFFSET 0 -0.280340 0.280340
									}
								}
							}
						}
					}
				}
			}
		}
	}
}
MOTION
Frames: 8
Frame Time: 0.008333333333333333
-11.935300 18.008800 2.978000 -164.384000 -79.198200 165.406000 0.000000 0.000000 0.000000 -18.667300 -1.849400 -10.410500 2.522800 9.879300 28.586800 0.513700 -8.080100 -13.133400 1.898000 -8.650300 -24.707400 0.000000 0.000000 0.000000 22.153500 4.764500 -5.311000 -1.660400 -8.119800 23.078400 -0.866000 7.957300 -16.695200 -0.281700 3.413600 -9.432500 2.724800 -0.107700 4.249700 -0.784600 -0.015300 -2.130100 -2.340400 -0.106000 -4.590200 5.607800 4.408600 2.093200 -5.202100 5.956900 -1.148900 -2.655400 2.999300 -0.376600 -0.000000 0.000000 0.000000 2.300100 7.629400 -22.789700 14.734100 -23.774400 3.118000 23.780500 17.196500 -8.311800 0.000000 0.000000 0.000000 -7.125000 0.000000 0.000000 -2.681000 39.037300 -0.394200 -0.000000 0.000000 0.000000 -3.788500 2.831100 40.657900 -12.278800 -20.221500 -2.197700 -15.735900 42.644700 29.166600 0.000000 0.000000 0.000000 7.125000 0.000000 -0.000000 17.300500 59.243900 -6.133800
-11.945239 18.008874 2.974392 -165.481715 -79.254301 166.466903 0.000000 0.000000 0.000000 -18.910991 -1.831804 -10.277832 2.497621 9.833580 28.439628 0.510240 -8.035411 -13.085472 1.875030 -8.600752 -24.554338 0.000000 0.000000 0.000000 21.912607 4.672913 -5.369898 -1.680941 -8.167287 23.223216 -0.879915 8.049328 -16.833243 -0.295320 3.494290 -9.658080 2.507319 -0.083478 4.136763 -0.849241 -0.002269 -2.118983 -2.285772 -0.092895 -4.513043 5.670674 4.412870 2.214751 -5.192529 5.968091 -1.253150 -2.669462 3.005779 -0.428357 0.000000 0.000000 0.000000 2.224195 7.720692 -22.034478 14.467807 -23.399071 3.011689 23.593572 17.669231 -8.296634 0.000000 0.000000 0.000000 -7.125000 0.000000 0.000000 -2.841129 39.006378 -0.419968 0.000000 0.000000 0.000000 -3.823176 2.989021 40.095202 -12.176170 -20.068218 -2.162435 -15.388401 42.842451 29.301403 0.000000 0.000000 0.000000 7.125000 0.000000 0.000000 17.761967 59.293154 -6.325219
-11.953099 18.009042 2.971777 -166.173119 -79.332465 167.122913 0.000000 0.000000 0.000000 -19.076633 -1.873832 -10.177527 2.489214 9.818287 28.390349 0.507016 -8.046991 -13.051292 1.811145 -8.459926 -24.120875 0.000000 0.000000 0.000000 21.749243 4.559405 -5.373330 -1.687969 -8.183450 23.272596 -0.885845 8.114332 -16.894370 -0.302279 3.535248 -9.772586 2.375965 -0.080753 4.056189 -0.899330 -0.010970 -2.109189 -2.262846 -0.093303 -4.457147 5.773564 4.430085 2.354019 -5.211683 5.997518 -1.397605 -2.701950 3.021423 -0.492870 0.000000 0.000000 0.000000 2.166905 7.812362 -21.289367 14.201419 -23.021333 2.906795 23.487245 18.103127 -8.302728 0.000000 0.000000 0.000000 -7.125000 0.000000 0.000000 -2.933651 39.004796 -0.433736 0.000000 0.000000 0.000000 -3.859175 3.143209 39.567229 -12.066642 -19.904399 -2.125043 -15.150322 43.106534 29.436915 0.000000 0.000000 0.000000 7.125000 0.000000 0.000000 18.109006 59.367636 -6.486354
-11.958380 18.008887 2.969277 -166.422528 -79.408485 167.345023 0.000000 0.000000 0.000000 -19.148032 -1.951193 -10.108041 2.491361 9.822171 28.402777 0.504508 -8.081222 -13.029879 1.737272 -8.295810 -23.616422 0.000000 0.000000 0.000000 21.683567 4.477105 -5.333775 -1.686431 -8.179829 23.261641 -0.887484 8.125956 -16.910280 -0.302764 3.537953 -9.780171 2.330782 -0.086795 4.010294 -0.930840 -0.024314 -2.103243 -2.268866 -0.098666 -4.425517 5.899777 4.432178 2.507060 -5.240197 6.006973 -1.600756 -2.743681 3.026826 -0.578799 0.000000 0.000000 0.000000 2.127561 7.899840 -20.541595 13.936940 -22.644107 2.804049 23.435829 18.520203 -8.296860 0.000000 0.000000 0.000000 -7.125000 0.000000 0.000000 -2.977491 38.994532 -0.441012 0.000000 0.000000 0.000000 -3.886439 3.292225 39.036815 -11.950154 -19.729816 -2.085526 -15.007765 43.407338 29.542939 0.000000 0.000000 0.000000 7.125000 0.000000 0.000000 18.334688 59.435670 -6.600280
-11.960073 18.007783 2.965670 -166.128037 -79.447947 167.041698 0.000000 0.000000 0.000000 -19.091342 -2.033724 -10.070788 2.496514 9.831595 28.433036 0.503477 -8.093296 -13.021339 1.695896 -8.201646 -23.328263 0.000000 0.000000 0.000000 21.755423 4.504640 -5.263834 -1.682309 -8.170405 23.232854 -0.889546 8.040774 -16.920440 -0.296285 3.500037 -9.674228 2.381877 -0.084660 4.006392 -0.935920 -0.018719 -2.105157 -2.303322 -0.097488 -4.425222 6.028470 4.377771 2.669914 -5.251830 5.940197 -1.895541 -2.782775 2.993401 -0.700866 0.000000 0.000000 0.000000 2.107315 7.976187 -19.772827 13.677420 -22.271576 2.704732 23.409472 18.949570 -8.230747 0.000000 0.000000 0.000000 -7.125000 0.000000 0.000000 -2.993688 38.920909 -0.448816 0.000000 0.000000 0.000000 -3.889752 3.433433 38.451220 -11.825805 -19.542888 -2.043635 -14.952254 43.707350 29.573419 0.000000 0.000000 0.000000 7.125000 0.000000 0.000000 18.415084 59.451793 -6.637607
-11.961494 18.005725 2.961245 -165.192598 -79.424744 166.105598 0.000000 0.000000 0.000000 -18.883441 -2.095685 -10.072632 2.511885 9.859477 28.522894 0.504081 -8.115315 -13.032484 1.636674 -8.063754 -22.908168 0.000000 0.000000 0.000000 21.981283 4.562076 -5.163309 -1.668990 -8.139594 23.138951 -0.885681 7.940199 -16.875700 -0.289397 3.459329 -9.560315 2.553259 -0.065769 4.053575 -0.904559 0.019367 -2.134657 -2.370540 -0.084322 -4.480917 5.919310 4.147359 3.113395 -5.079419 5.643606 -2.406315 -2.730256 2.845886 -0.967197 0.000000 0.000000 0.000000 2.103893 8.046472 -18.950862 13.376078 -21.835087 2.591928 23.296475 19.529265 -8.270823 0.000000 0.000000 0.000000 -7.125000 0.000000 0.000000 -3.095299 38.955723 -0.461388 0.000000 0.000000 0.000000 -3.906211 3.610061 37.930129 -11.700639 -19.354053 -2.002016 -14.781426 43.843277 29.603490 0.000000 0.000000 0.000000 7.125000 0.000000 0.000000 18.617199 59.441148 -6.708786
-11.964020 18.003798 2.956003 -164.047137 -79.370597 164.955546 0.000000 0.000000 0.000000 -18.620905 -2.155439 -10.072713 2.531546 9.894988 28.637439 0.506320 -8.167395 -13.068843 1.553388 -7.864186 -22.303361 0.000000 0.000000 0.000000 22.265385 4.634452 -5.035394 -1.652549 -8.101376 23.022461 -0.883717 7.809539 -16.845761 -0.294539 3.489388 -9.644381 2.761082 -0.044479 4.115449 -0.858022 0.064254 -2.180829 -2.443204 -0.069477 -4.561967 5.903892 3.990565 3.525275 -4.973425 5.448252 -2.861603 -2.715235 2.748451 -1.200747 0.000000 0.000000 0.000000 2.114352 8.162009 -18.143876 13.072648 -21.392840 2.480204 23.202931 20.090650 -8.339229 0.000000 0.000000 0.000000 -7.125000 0.000000 0.000000 -3.183160 39.022597 -0.469254 0.000000 0.000000 0.000000 -3.926863 3.817391 37.434329 -11.578328 -19.169153 -1.961671 -14.664168 44.006834 29.642293 0.000000 0.000000 0.000000 7.125000 0.000000 0.000000 18.768975 59.450959 -6.770308
-11.967222 18.002308 2.949680 -162.849020 -79.294360 163.745952 0.000000 0.000000 0.000000 -18.337015 -2.212107 -10.067128 2.553608 9.934694 28.765596 0.510720 -8.231860 -13.132343 1.463786 -7.645896 -21.643765 0.000000 0.000000 0.000000 22.576863 4.736576 -4.879827 -1.634614 -8.059498 22.894872 -0.884506 7.639674 -16.838431 -0.310139 3.579983 -9.897904 2.969346 -0.020503 4.179693 -0.802911 0.113466 -2.231660 -2.507637 -0.052692 -4.648852 5.976419 3.928216 3.856290 -4.923295 5.380368 -3.220175 -2.730884 2.713866 -1.378298 0.000000 0.000000 0.000000 2.130077 8.309422 -17.325712 12.776149 -20.958072 2.372842 23.135485 20.638987 -8.412519 0.000000 0.000000 0.000000 -7.125000 0.000000 0.000000 -3.249108 39.096680 -0.473137 0.000000 0.000000 0.000000 -3.945315 4.038049 36.931029 -11.457558 -18.986181 -1.922175 -14.622102 44.235537 29.668378 0.000000 0.000000 0.000000 7.125000 0.000000 0.000000 18.832134 59.465949 -6.800856
